# xmcd CD database file
#
# Track frame offsets:
#	150
#	15031
#	31417
#	46408
#	57755
#	80495
#	96015
#	111071
#	127684
#	141384
#	155817
#	173091
#
# Disc length: 2512 seconds
#
# Revision: 4
# Processed by: cddbd v1.5.2PL0 Copyright (c) Steve Scherf et al.
# Submitted via: CDex 2.17
#
DISCID=8d09ce0c
DTITLE=Olivia Newton-John - Let Me Be There
DYEAR=1990
DGENRE=Country
TTITLE0=Take Me Home Country Roads
TTITLE1=Amoureuse
TTITLE2=Brotherly Love
TTITLE3=Heartbreaker
TTITLE4=Rosewater
TTITLE5=You ain't got the right
TTITLE6=Feeling Best
TTITLE7=Being On The Losing End
TTITLE8=Let Me Be There
TTITLE9=Music Makes My Day
TTITLE10=Leaving
TTITLE11=If We Try
EXTD=YEAR: 1990
EXTT0=
EXTT1=
EXTT2=
EXTT3=
EXTT4=
EXTT5=
EXTT6=
EXTT7=
EXTT8=
EXTT9=
EXTT10=
EXTT11=
PLAYORDER=
